<svg id="Layer_1" data-name="Layer 1" xmlns="http://www.w3.org/2000/svg" xmlns:xlink="http://www.w3.org/1999/xlink" viewBox="0 0 64 64"><defs><style>.cls-1{fill:#fff;}.cls-2{fill:#1d86c7;}.cls-3{fill:url(#linear-gradient);}.cls-4{fill:#0773b8;}.cls-5{fill:none;}.cls-6{fill:#ea1e32;}</style><linearGradient id="linear-gradient" x1="32" y1="1.7" x2="32" y2="46.03" gradientUnits="userSpaceOnUse"><stop offset="0" stop-color="#ea2c29"/><stop offset="1" stop-color="#b02326"/></linearGradient></defs><title>OnEdu Logo</title><path class="cls-1" d="M54.86,0H9.14A9.15,9.15,0,0,0,0,9.14H0V54.87A9.15,9.15,0,0,0,9.14,64H54.86A9.15,9.15,0,0,0,64,54.86h0V9.16h0A9.15,9.15,0,0,0,54.86,0ZM62.3,9.16V54.85h0a7.44,7.44,0,0,1-7.44,7.44H9.14A7.44,7.44,0,0,1,1.7,54.87V9.15h0A7.44,7.44,0,0,1,9.14,1.7H54.86A7.45,7.45,0,0,1,62.3,9.14Z"/><path class="cls-2" d="M54.86,38.59H9.14A7.44,7.44,0,0,0,1.7,46v8.84A7.44,7.44,0,0,0,9.14,62.3H54.86a7.44,7.44,0,0,0,7.44-7.44h0V31.14A7.46,7.46,0,0,1,54.86,38.59Z"/><path class="cls-3" d="M54.86,1.7H9.14A7.44,7.44,0,0,0,1.7,9.14h0V46a7.44,7.44,0,0,1,7.44-7.44H54.86a7.46,7.46,0,0,0,7.44-7.45v-22A7.45,7.45,0,0,0,54.86,1.7Z"/><path class="cls-1" d="M47.55,29.88a.93.93,0,0,0,.05.1l.08.14.06.09.09.14.06.09.11.15,0,.07.17.22a2.21,2.21,0,0,0,.39.4,5.49,5.49,0,0,0,4.63,1.41l.16,0a5.4,5.4,0,0,0,2.46-1.15,5.21,5.21,0,0,0,1.94-4.07V8.55H53.4V27.47h0a1,1,0,0,1-.67.94,1,1,0,0,1-1.31-.59h0l-1.82-4.87-.86-2.29h0L45.49,12h0s0-.07,0-.11a.49.49,0,0,1,0-.11.83.83,0,0,0-.07-.13s0-.07,0-.11a.61.61,0,0,1-.07-.14l-.06-.09a.64.64,0,0,0-.08-.14.93.93,0,0,1-.05-.1l-.1-.14a.35.35,0,0,0,0-.08.91.91,0,0,1-.11-.16l-.05-.06-.18-.22a2.4,2.4,0,0,0-.38-.4,5.51,5.51,0,0,0-4.64-1.42l-.15,0a5.47,5.47,0,0,0-2.47,1.14A5.24,5.24,0,0,0,35,13.86v18.9h4.4V13.83h0a1,1,0,0,1,.67-.93,1,1,0,0,1,1.31.59h0l1.83,4.87,2,5.32,2.36,6.19"/><rect class="cls-1" x="15.74" y="6.36" width="4.4" height="11.01" rx="1.1"/><path class="cls-1" d="M22.34,9.44v5a7.67,7.67,0,1,1-8.8,0v-5a12.08,12.08,0,1,0,8.8,0Z"/><path class="cls-4" d="M31.59,59.85A25.49,25.49,0,0,0,17.73,60V42.82a24.07,24.07,0,0,1,14.29,0v16.7a.34.34,0,0,1-.43.33"/><path d="M17.45,60.35V42.63l.18-.06a22.56,22.56,0,0,1,7.26-1.1,24,24,0,0,1,7.21,1.09l.19.06v16.9a.61.61,0,0,1-.61.61l-.16,0a27.93,27.93,0,0,0-6.84-.86,22.12,22.12,0,0,0-6.86,1ZM18,43V59.59a23.58,23.58,0,0,1,6.68-.88,28.11,28.11,0,0,1,7,.88.07.07,0,0,0,.09-.07V43a23.39,23.39,0,0,0-6.86-1A23,23,0,0,0,18,43Z"/><path class="cls-4" d="M46.28,60a26.4,26.4,0,0,0-14-.11A.26.26,0,0,1,32,59.6V42.82a24.11,24.11,0,0,1,14.3,0Z"/><path d="M46.55,60.31l-.34-.09a27.86,27.86,0,0,0-7.28-1,23.3,23.3,0,0,0-6.53.86.54.54,0,0,1-.53-.12.57.57,0,0,1-.16-.39v-17l.18-.06a22.56,22.56,0,0,1,7.26-1.1,24,24,0,0,1,7.2,1.09l.2.06Zm-7.62-1.6a28.4,28.4,0,0,1,7.08.9V43a23.44,23.44,0,0,0-6.86-1,23.12,23.12,0,0,0-6.9,1V59.59A23.85,23.85,0,0,1,38.93,58.71Z"/><path class="cls-5" d="M32.15,41.5V46h.22v9.47h-.22v3.15a20.34,20.34,0,0,1,6.27-.93,23.85,23.85,0,0,1,6.67,1V41.52a20.46,20.46,0,0,0-12.94,0Z"/><path class="cls-1" d="M32,41.42a20.49,20.49,0,0,0-13.22,0V58.77a21.79,21.79,0,0,1,13.2,0h0a21.79,21.79,0,0,1,13.2,0V41.43A20.55,20.55,0,0,0,32,41.42Z"/><path d="M45.26,41.3a20.33,20.33,0,0,0-6.64-1.1A20,20,0,0,0,32,41.28a20.49,20.49,0,0,0-6.58-1.08,19.74,19.74,0,0,0-6.68,1.1l-.09,0V59l.18-.07a19.08,19.08,0,0,1,6.38-1,23.91,23.91,0,0,1,6.64,1V59L32,58.9l.15,0v-.09a19.57,19.57,0,0,1,6.27-1,24.1,24.1,0,0,1,6.76,1l.17,0V41.33Zm-.17,17.3a23.85,23.85,0,0,0-6.67-1,20.34,20.34,0,0,0-6.27.93V55.42h-.3v3.17a23.9,23.9,0,0,0-6.64-1,20.23,20.23,0,0,0-6.3.94V41.51a20.46,20.46,0,0,1,12.94,0V46h.3V41.5a20.46,20.46,0,0,1,12.94,0Z"/><polygon class="cls-6" points="34.92 45.5 33.87 45 32.82 45.5 32.82 41.02 34.92 40.53 34.92 45.5"/><path class="cls-2" d="M28.11,47.41a.33.33,0,0,1,0,.15.48.48,0,0,1-.08.18.57.57,0,0,1-.12.18.5.5,0,0,1-.14.12,1,1,0,0,1-.28.1l-.34.08-1,.17-.94.11-.81,0-.61,0H22.3q0,.18,0,.45l0,.54c0,.18,0,.36,0,.53a4.23,4.23,0,0,1,0,.43l.36,0h.39l.55,0,.45,0,.28,0,.41,0,.42,0,.32,0,.21-.09a.76.76,0,0,1,.2-.06l.19,0h.21a.49.49,0,0,1,.25.06.46.46,0,0,1,.16.15.88.88,0,0,1,.07.23,1.09,1.09,0,0,1,0,.26.39.39,0,0,1-.1.28.76.76,0,0,1-.22.17,1.45,1.45,0,0,1-.29.11l-.25.06-.34,0-.57,0-.67.05-.68,0-.57,0h-.36a1.58,1.58,0,0,0-.32,0l-.3.07a3.43,3.43,0,0,0-.11.59c0,.21-.07.43-.12.65l-.06.28-.06.27a2.23,2.23,0,0,0,0,.23,1.49,1.49,0,0,0,0,.17h.28l.32,0,.34,0,.32,0,.68-.05.51,0,.42,0,.42-.06.29,0,.34,0,.35,0a2.21,2.21,0,0,0,.32-.07l.19-.06.18-.07.2,0a.64.64,0,0,1,.2,0,.64.64,0,0,1,.23.05.66.66,0,0,1,.19.15.74.74,0,0,1,.13.21.65.65,0,0,1,.05.27.37.37,0,0,1-.05.15.73.73,0,0,1-.14.18,1.37,1.37,0,0,1-.23.17.63.63,0,0,1-.28.11q-.49.09-1,.15l-1.1.13-.87.1-.8.1-.65.08-.42.07a2.61,2.61,0,0,0-.27.06l-.3.09-.28.07-.24,0h0a1,1,0,0,1-.36-.05.51.51,0,0,1-.25-.16.72.72,0,0,1-.15-.33,1.9,1.9,0,0,1-.06-.52,2.69,2.69,0,0,1,.06-.53c.05-.2.1-.43.15-.71s.1-.5.15-.72.09-.42.14-.63l.12-.61c0-.21.06-.43.08-.66,0,0,0-.09,0-.19s0-.23,0-.37,0-.28,0-.44,0-.3,0-.44,0-.26,0-.36a1.92,1.92,0,0,0,0-.2.54.54,0,0,0,0-.11.57.57,0,0,1,0-.12A.72.72,0,0,1,21,48a1.25,1.25,0,0,1,.14-.32.59.59,0,0,1,.18-.17,1.75,1.75,0,0,1,.27-.16,1.34,1.34,0,0,1,.3-.12.8.8,0,0,1,.24,0,.83.83,0,0,1,.2,0l.27.05.28,0,.18,0h.84l1,0,1-.12.43-.1.4-.13.38-.1a1.93,1.93,0,0,1,.42,0,.63.63,0,0,1,.22,0,.72.72,0,0,1,.19.13.62.62,0,0,1,.14.18.41.41,0,0,1,.05.21"/><path class="cls-2" d="M44,53a.22.22,0,0,0-.14,0l-.13,0-.12.07-.11.09-.09.09a1.27,1.27,0,0,1-.48.26,1.85,1.85,0,0,1-.44.06.54.54,0,0,1-.35-.13,1,1,0,0,1-.29-.34,1.75,1.75,0,0,1-.21-.5,2.35,2.35,0,0,1-.08-.6,1.73,1.73,0,0,1,0-.32,2.81,2.81,0,0,1,.08-.31l.09-.29.11-.23.07-.2a.35.35,0,0,0,0-.13,1.34,1.34,0,0,0,0-.19.41.41,0,0,0,0-.19.46.46,0,0,0-.16-.15.61.61,0,0,0-.3-.06.59.59,0,0,0-.34.09.91.91,0,0,0-.24.24,1.29,1.29,0,0,0-.17.33l-.15.4-.15.41a3.2,3.2,0,0,1-.19.37,3.68,3.68,0,0,1-.25.35l-.4.49-.46.5a4.58,4.58,0,0,1-.45.39l-.16.13-.19.12-.18.1a.56.56,0,0,1-.15,0,.12.12,0,0,1-.09-.08,1.62,1.62,0,0,1-.06-.17,1.23,1.23,0,0,1,0-.2v-.17a1.75,1.75,0,0,1,0-.47c0-.15.06-.29.09-.42s.09-.26.15-.39.12-.25.17-.38.1-.21.16-.35.12-.28.17-.42.11-.28.15-.4a.94.94,0,0,0,.06-.28.32.32,0,0,0,0-.17.62.62,0,0,0-.14-.19.65.65,0,0,0-.18-.15.4.4,0,0,0-.21-.07.41.41,0,0,0-.16,0,.78.78,0,0,0-.2.11.94.94,0,0,0-.19.14.36.36,0,0,0-.12.13,2,2,0,0,1-.1.43l-.4.42q-.31.32-.63.66l-.26.27-.32.32-.35.32a3.89,3.89,0,0,1-.35.28l-.34.2a.87.87,0,0,1-.29.07s-.1,0-.14-.12a1.18,1.18,0,0,1-.11-.29c0-.12,0-.25-.08-.39s0-.28-.05-.41,0-.23,0-.33a1.74,1.74,0,0,1,0-.18c0-.26,0-.51,0-.76s.06-.52.1-.82l.21-1.29c.06-.36.12-.67.16-.93s.08-.45.11-.59,0-.25,0-.31-.1-.26-.3-.33a.45.45,0,0,0-.18-.07l-.19,0a.87.87,0,0,0-.39.08.49.49,0,0,0-.23.22,1.21,1.21,0,0,0-.07.28,4.56,4.56,0,0,0-.07.48q0,.26-.06.54c0,.19,0,.36,0,.51s0,.29,0,.44,0,.33-.05.49,0,.31,0,.46,0,.27-.06.38a3.57,3.57,0,0,0-.12-.4,2.69,2.69,0,0,0-.17-.34,1.06,1.06,0,0,0-.23-.24.44.44,0,0,0-.27-.09,3.58,3.58,0,0,0-.7.06,1.76,1.76,0,0,0-.52.17,1.9,1.9,0,0,0-.38.25,4,4,0,0,0-.37.35c-.12.12-.24.25-.34.37l-.28.37a7.71,7.71,0,0,0-.73,1.22,10.71,10.71,0,0,0-.53,1.3,2.21,2.21,0,0,0-.07.32,3,3,0,0,0,0,.46,2,2,0,0,0,.05.4,1.68,1.68,0,0,0,.16.39,1.07,1.07,0,0,0,.27.29.64.64,0,0,0,.39.11,3,3,0,0,0,1.23-.25A4.29,4.29,0,0,0,31.55,54c.14-.14.29-.28.43-.44s.29-.33.44-.5.26-.35.38-.52.2-.34.28-.49c0,.18,0,.38.05.59a3.88,3.88,0,0,0,.14.61,2,2,0,0,0,.27.54,1,1,0,0,0,.41.36.81.81,0,0,0,.37.09,1.33,1.33,0,0,0,.53-.13,3,3,0,0,0,.54-.31,6,6,0,0,0,.49-.39L36.3,53l.37-.38.13-.14c0,.12,0,.23-.07.34a3.68,3.68,0,0,0-.07.63,2.19,2.19,0,0,0,0,.36,2.79,2.79,0,0,0,.07.38,1,1,0,0,0,.19.38,2.69,2.69,0,0,0,.3.29,1.53,1.53,0,0,0,.31.19.75.75,0,0,0,.24.07,1.37,1.37,0,0,0,.48-.11,3,3,0,0,0,.52-.29,4.06,4.06,0,0,0,.53-.42,6.14,6.14,0,0,0,.51-.51c.15-.18.3-.35.43-.53a3.54,3.54,0,0,0,.34-.52,1.68,1.68,0,0,0,.14.64,2.43,2.43,0,0,0,.37.57,1.85,1.85,0,0,0,.52.41,1.31,1.31,0,0,0,.63.16A1.92,1.92,0,0,0,43,54.4a2.13,2.13,0,0,0,.58-.37,1.65,1.65,0,0,0,.36-.46.87.87,0,0,0,.14-.4A.17.17,0,0,0,44,53ZM32.2,51.81A2.29,2.29,0,0,1,32,52a3.49,3.49,0,0,1-.31.38c-.13.16-.3.34-.51.56a4.27,4.27,0,0,1-.37.33c-.15.11-.3.22-.45.31a3.46,3.46,0,0,1-.41.23.69.69,0,0,1-.3.1c-.09,0-.13-.12-.13-.35a1.86,1.86,0,0,1,.06-.45,4.42,4.42,0,0,1,.2-.57l.23-.44c.1-.17.2-.36.32-.55s.24-.36.38-.55.28-.36.42-.51a2.84,2.84,0,0,1,.38-.39c.11-.1.19-.15.25-.15a.19.19,0,0,1,.13.08.67.67,0,0,1,.14.19,1,1,0,0,1,.11.23.59.59,0,0,1,0,.19.52.52,0,0,1,0,.17v.21a1,1,0,0,0,0,.27.82.82,0,0,0,.12.2C32.3,51.63,32.25,51.73,32.2,51.81Z"/></svg>