<svg id="Layer_1" data-name="Layer 1" xmlns="http://www.w3.org/2000/svg" xmlns:xlink="http://www.w3.org/1999/xlink" viewBox="0 0 180 180"><defs><style>.cls-1{fill:#fff;}.cls-2{fill:#1d86c7;}.cls-3{fill:url(#linear-gradient);}.cls-4{fill:#0773b8;}.cls-5{fill:none;}.cls-6{fill:#ea1e32;}</style><linearGradient id="linear-gradient" x1="90" y1="4.77" x2="90" y2="129.46" gradientUnits="userSpaceOnUse"><stop offset="0" stop-color="#ea2c29"/><stop offset="1" stop-color="#b02326"/></linearGradient></defs><title>OnEdu Logo</title><path class="cls-1" d="M154.29,0H25.71A25.71,25.71,0,0,0,0,25.7V154.32A25.72,25.72,0,0,0,25.71,180H154.29A25.71,25.71,0,0,0,180,154.3V25.68A25.72,25.72,0,0,0,154.29,0Zm20.94,25.75V154.3a20.93,20.93,0,0,1-20.94,20.93H25.71A21,21,0,0,1,4.77,154.32V25.7A20.93,20.93,0,0,1,25.71,4.77H154.29A21,21,0,0,1,175.23,25.7Z"/><path class="cls-2" d="M154.3,108.53H25.71A20.95,20.95,0,0,0,4.77,129.46v24.86a21,21,0,0,0,20.94,20.91H154.29a20.93,20.93,0,0,0,20.94-20.93V87.59A21,21,0,0,1,154.3,108.53Z"/><path class="cls-3" d="M154.29,4.77H25.71A20.93,20.93,0,0,0,4.77,25.7V129.46a20.95,20.95,0,0,1,20.94-20.93H154.3a21,21,0,0,0,20.93-20.94V25.7A21,21,0,0,0,154.29,4.77Z"/><path class="cls-1" d="M133.73,84a2.49,2.49,0,0,0,.15.28l.22.39.16.26c.08.14.17.27.26.4s.1.16.16.24.21.29.32.44l.14.18c.16.21.32.41.49.61A7.72,7.72,0,0,0,136.71,88a15.5,15.5,0,0,0,13,4l.43-.07a15.49,15.49,0,0,0,6.94-3.22,14.7,14.7,0,0,0,5.43-11.45V24H150.18V77.27h0a2.79,2.79,0,0,1-1.89,2.63,2.88,2.88,0,0,1-3.68-1.67,0,0,0,0,1,0,0h0l-5.13-13.69-2.41-6.43h0L128,33.8h0l-.12-.3-.12-.3-.18-.39c0-.1-.09-.19-.13-.29s-.14-.26-.2-.39l-.15-.27a3.64,3.64,0,0,0-.23-.39l-.15-.27-.26-.39-.16-.25-.32-.43-.14-.19c-.16-.2-.32-.41-.5-.6a6.37,6.37,0,0,0-1.07-1.13,15.54,15.54,0,0,0-13-4l-.43.08a15.28,15.28,0,0,0-6.94,3.22A14.72,14.72,0,0,0,98.37,39V92.14h12.38V38.91h0a2.81,2.81,0,0,1,1.89-2.63,2.89,2.89,0,0,1,3.68,1.67v0h0l5.13,13.7,5.63,15L133.73,84"/><rect class="cls-1" x="44.27" y="17.89" width="12.38" height="30.96" rx="3.1"/><path class="cls-1" d="M62.84,26.55v14a21.59,21.59,0,1,1-24.76,0V26.55a34,34,0,1,0,24.76,0Z"/><path class="cls-4" d="M88.85,168.33c-22.42-5.71-39,.32-39,.32V120.44a67.78,67.78,0,0,1,40.2,0v47a1,1,0,0,1-1.2.93"/><path d="M49.09,169.73V119.9l.5-.17A63.73,63.73,0,0,1,70,116.63a67.11,67.11,0,0,1,20.26,3.08l.53.17V167.4a1.72,1.72,0,0,1-1.72,1.72,1.59,1.59,0,0,1-.43-.06,78.39,78.39,0,0,0-19.26-2.43c-11.63,0-19.22,2.71-19.29,2.74ZM50.62,121V167.6a66.46,66.46,0,0,1,18.78-2.49A79.84,79.84,0,0,1,89,167.59a.21.21,0,0,0,.26-.19V121a67.46,67.46,0,0,0-38.67,0Z"/><path class="cls-4" d="M130.15,168.65c-19.85-5.39-35.35-1.48-39.26-.31a.74.74,0,0,1-1-.71V120.44a67.82,67.82,0,0,1,40.21,0Z"/><path d="M130.91,169.63l-1-.25a78,78,0,0,0-20.46-2.75,65.17,65.17,0,0,0-18.36,2.44,1.53,1.53,0,0,1-1.49-.36,1.51,1.51,0,0,1-.45-1.08V119.9l.5-.17a63.62,63.62,0,0,1,20.42-3.1,67.06,67.06,0,0,1,20.26,3.08l.54.17Zm-21.42-4.52a80.09,80.09,0,0,1,19.9,2.54V121a67.5,67.5,0,0,0-38.68,0V167.6A67.2,67.2,0,0,1,109.49,165.11Z"/><path class="cls-5" d="M90.41,116.73v12.5H91v26.64h-.62v8.87a56.82,56.82,0,0,1,17.64-2.62,67.72,67.72,0,0,1,18.76,2.68v-48a57.8,57.8,0,0,0-36.4,0Z"/><path class="cls-1" d="M90,116.5a57.67,57.67,0,0,0-37.17,0v48.78s15.84-6.29,37.12,0v0h.1v0c1.36-.51,16.77-6,37.13,0V116.51A57.74,57.74,0,0,0,90,116.5Z"/><path d="M127.29,116.16a57.12,57.12,0,0,0-18.67-3.09,56.46,56.46,0,0,0-18.62,3,57.32,57.32,0,0,0-18.51-3,55.66,55.66,0,0,0-18.8,3.1l-.23.09v49.57l.5-.2a53.53,53.53,0,0,1,18-2.78,66.93,66.93,0,0,1,18.66,2.69v.29l.43-.17.4.12v-.27a55.49,55.49,0,0,1,17.64-2.66,67.18,67.18,0,0,1,19,2.79l.47.14V116.25Zm-.48,48.64a67.72,67.72,0,0,0-18.76-2.68,56.82,56.82,0,0,0-17.64,2.62v-8.87h-.83v8.91a67.27,67.27,0,0,0-18.66-2.66,56.38,56.38,0,0,0-17.73,2.65v-48a57.77,57.77,0,0,1,36.39,0v12.49h.83v-12.5a57.8,57.8,0,0,1,36.4,0Z"/><polygon class="cls-6" points="98.22 127.96 95.27 126.56 92.31 127.96 92.31 115.36 98.22 113.98 98.22 127.96"/><path class="cls-2" d="M79.07,133.34a1.26,1.26,0,0,1-.08.41,2.74,2.74,0,0,1-.23.53c-.11.18-.22.35-.33.5a1.57,1.57,0,0,1-.4.33,3.54,3.54,0,0,1-.8.29c-.27.07-.57.14-1,.21-1,.19-1.92.35-2.83.47s-1.81.23-2.63.31-1.59.13-2.28.17-1.26,0-1.73,0H63.54a7.22,7.22,0,0,1-.82,0c0,.35-.07.77-.09,1.27s-.06,1-.09,1.52-.06,1-.09,1.49-.08.88-.13,1.2a9.22,9.22,0,0,0,1,.07l1.11,0c.53,0,1,0,1.55-.06s.94-.07,1.26-.11l.8-.06,1.14-.07c.41,0,.8-.07,1.19-.13a8.52,8.52,0,0,0,.91-.13l.58-.25.55-.18a2.36,2.36,0,0,1,.53-.1,3.78,3.78,0,0,1,.6,0,1.35,1.35,0,0,1,.72.17,1.39,1.39,0,0,1,.43.44,2,2,0,0,1,.22.63A4.52,4.52,0,0,1,75,143a1.07,1.07,0,0,1-.26.77,2.4,2.4,0,0,1-.63.5,4.57,4.57,0,0,1-.8.31l-.73.15a6.13,6.13,0,0,1-.94.13L70,145c-.6,0-1.24.07-1.9.13l-1.92.09-1.6.07-1,0a4.16,4.16,0,0,0-.9.09c-.27.05-.56.12-.86.2a10.9,10.9,0,0,0-.3,1.64c-.09.6-.2,1.21-.34,1.85-.05.25-.11.51-.17.78s-.11.51-.16.75-.08.45-.11.65-.06.36-.07.49c.23,0,.49,0,.78,0l.9,0,1-.07.92-.09,1.9-.16,1.44-.13c.43,0,.83-.08,1.19-.13s.76-.08,1.17-.14l.81-.11,1-.1,1-.12a6.59,6.59,0,0,0,.91-.19,2.8,2.8,0,0,0,.52-.16l.53-.2.54-.16a2.67,2.67,0,0,1,.56-.06,1.57,1.57,0,0,1,.64.14,1.66,1.66,0,0,1,.55.4,2.18,2.18,0,0,1,.38.61,2.1,2.1,0,0,1,.14.76,1.09,1.09,0,0,1-.15.41,2.27,2.27,0,0,1-.41.52,3.59,3.59,0,0,1-.63.48,2.39,2.39,0,0,1-.78.3c-.94.18-1.86.31-2.8.41s-2,.23-3.1.38l-2.42.28-2.26.28-1.85.23c-.52.08-.91.13-1.16.19a4.5,4.5,0,0,0-.77.18l-.83.23-.8.19a3.56,3.56,0,0,1-.68.07h0a3,3,0,0,1-1-.13,1.56,1.56,0,0,1-.72-.47,2.46,2.46,0,0,1-.42-.92,5.42,5.42,0,0,1-.15-1.45,7,7,0,0,1,.17-1.5c.12-.55.26-1.21.4-2s.3-1.41.44-2,.26-1.2.38-1.78.23-1.16.34-1.73.17-1.19.23-1.86c0-.07,0-.24,0-.53s0-.63.08-1,.06-.8.08-1.24.06-.86.09-1.25.06-.73.07-1,0-.47,0-.56a2.24,2.24,0,0,0,0-.31,1.51,1.51,0,0,1,0-.34,2.4,2.4,0,0,1,.14-.79,3.36,3.36,0,0,1,.41-.89,1.72,1.72,0,0,1,.49-.48,5.08,5.08,0,0,1,.76-.45,4.35,4.35,0,0,1,.84-.34,2.56,2.56,0,0,1,.7-.12,3.71,3.71,0,0,1,.55.06l.77.14.78.14a2.85,2.85,0,0,0,.52.07h1l1.37,0c.93,0,1.86,0,2.81-.1s1.9-.18,2.87-.34a12,12,0,0,0,1.21-.29l1.12-.34c.35-.1.73-.2,1.09-.28a5.59,5.59,0,0,1,1.17-.12,1.49,1.49,0,0,1,.61.13,2.75,2.75,0,0,1,.53.36,1.89,1.89,0,0,1,.41.53,1.17,1.17,0,0,1,.15.58"/><path class="cls-2" d="M123.87,149.19a.63.63,0,0,0-.4-.17.86.86,0,0,0-.36.08,1.75,1.75,0,0,0-.35.2l-.31.25a2.39,2.39,0,0,1-.26.23,3.53,3.53,0,0,1-1.33.75,5.34,5.34,0,0,1-1.26.17,1.55,1.55,0,0,1-1-.36,3.28,3.28,0,0,1-.83-1,5.63,5.63,0,0,1-.58-1.41,6.19,6.19,0,0,1-.22-1.68,4,4,0,0,1,.09-.91c.05-.3.13-.58.2-.87a7,7,0,0,1,.28-.81c.1-.25.2-.47.28-.66s.15-.39.21-.55a.89.89,0,0,0,.09-.37c0-.16,0-.33,0-.53a1.37,1.37,0,0,0-.17-.54,1.26,1.26,0,0,0-.43-.43,2,2,0,0,0-.86-.16,1.79,1.79,0,0,0-1,.25,2.48,2.48,0,0,0-.66.67,4.06,4.06,0,0,0-.5,1c-.14.35-.27.73-.42,1.11s-.28.76-.42,1.14a8,8,0,0,1-.52,1.06,11.41,11.41,0,0,1-.72,1c-.33.43-.72.89-1.13,1.37s-.84,1-1.29,1.41a11.46,11.46,0,0,1-1.24,1.12c-.14.1-.29.22-.47.34a4.5,4.5,0,0,1-.53.36c-.17.1-.33.18-.5.26a.94.94,0,0,1-.42.11.3.3,0,0,1-.26-.21,2.34,2.34,0,0,1-.16-.47,3.55,3.55,0,0,1-.06-.57,4.65,4.65,0,0,1,0-.48,7,7,0,0,1,.11-1.33,10.19,10.19,0,0,1,.28-1.18,9.06,9.06,0,0,1,.42-1.09q.24-.52.48-1.08c.12-.25.26-.58.43-1s.35-.79.5-1.18.3-.78.41-1.12a2.69,2.69,0,0,0,.18-.79,1.08,1.08,0,0,0-.15-.49,2.46,2.46,0,0,0-.39-.54,2.09,2.09,0,0,0-.52-.42,1.18,1.18,0,0,0-.58-.18,1.21,1.21,0,0,0-.45.13,4,4,0,0,0-.57.31,3.16,3.16,0,0,0-.53.39,1.39,1.39,0,0,0-.34.37,6.55,6.55,0,0,1-.27,1.21c-.34.36-.73.75-1.14,1.19-.57.59-1.16,1.2-1.76,1.84-.21.22-.45.48-.74.77s-.58.59-.9.9-.65.61-1,.9a8.5,8.5,0,0,1-1,.78,6.28,6.28,0,0,1-.94.56,2.08,2.08,0,0,1-.81.2c-.15,0-.28-.11-.4-.32a3.92,3.92,0,0,1-.31-.83c-.09-.33-.15-.7-.22-1.1s-.1-.78-.15-1.14,0-.66-.06-.94,0-.43,0-.5c0-.73,0-1.44.09-2.15s.17-1.46.29-2.29c.21-1.4.41-2.61.59-3.64s.33-1.89.45-2.6.22-1.26.3-1.67a7,7,0,0,0,.12-.88c0-.4-.29-.72-.83-.93a2.13,2.13,0,0,0-1.06-.24,2.2,2.2,0,0,0-1.08.22,1.4,1.4,0,0,0-.65.62,2.79,2.79,0,0,0-.21.78c-.07.4-.14.84-.19,1.35s-.12,1-.17,1.54-.09,1-.12,1.41-.08.81-.13,1.26-.09.91-.14,1.36-.1.89-.16,1.3-.09.77-.14,1.07c-.1-.37-.21-.74-.35-1.11a5.84,5.84,0,0,0-.49-1,2.74,2.74,0,0,0-.64-.67,1.28,1.28,0,0,0-.77-.26,10.54,10.54,0,0,0-2,.16,6.1,6.1,0,0,0-1.46.48,5.4,5.4,0,0,0-1.05.71c-.34.3-.71.62-1,1s-.67.7-1,1.07-.57.71-.79,1a22.93,22.93,0,0,0-2,3.42,29.9,29.9,0,0,0-1.48,3.67,4.28,4.28,0,0,0-.21.9,9.56,9.56,0,0,0-.07,1.28,5.13,5.13,0,0,0,.14,1.13,4.37,4.37,0,0,0,.44,1.09,2.66,2.66,0,0,0,.78.82,1.77,1.77,0,0,0,1.08.32A8.35,8.35,0,0,0,85.5,154a11.86,11.86,0,0,0,3.23-2.16c.4-.37.82-.78,1.23-1.23s.81-.93,1.21-1.41.74-1,1.07-1.46a14,14,0,0,0,.8-1.37c0,.51.07,1.07.14,1.66a8.87,8.87,0,0,0,.4,1.71,5.74,5.74,0,0,0,.74,1.51,2.7,2.7,0,0,0,1.16,1,2.25,2.25,0,0,0,1,.26,3.74,3.74,0,0,0,1.51-.36,9.62,9.62,0,0,0,1.5-.88,13.52,13.52,0,0,0,1.39-1.11l1.17-1.06c.33-.31.67-.66,1-1,.12-.13.24-.27.37-.39a6.18,6.18,0,0,0-.2.93,9.67,9.67,0,0,0-.18,1.78,8.72,8.72,0,0,0,.06,1,9.16,9.16,0,0,0,.21,1.07,2.88,2.88,0,0,0,.54,1.06,5,5,0,0,0,.84.82,5.05,5.05,0,0,0,.87.54,1.87,1.87,0,0,0,.66.18,3.56,3.56,0,0,0,1.35-.3,7.5,7.5,0,0,0,1.48-.81,14.19,14.19,0,0,0,1.5-1.19,19,19,0,0,0,1.41-1.43c.44-.49.86-1,1.23-1.49a11.46,11.46,0,0,0,.94-1.46,4.82,4.82,0,0,0,.4,1.78,6.44,6.44,0,0,0,1,1.61,5.88,5.88,0,0,0,1.47,1.17,3.71,3.71,0,0,0,1.75.45A5.39,5.39,0,0,0,121,153a5.69,5.69,0,0,0,1.63-1,4.64,4.64,0,0,0,1-1.29,2.42,2.42,0,0,0,.38-1.14A.48.48,0,0,0,123.87,149.19Zm-33.32-3.47c-.17.24-.31.46-.46.65s-.49.63-.88,1.07-.85.95-1.44,1.57a11.24,11.24,0,0,1-1,.92,13.46,13.46,0,0,1-1.25.87,8.31,8.31,0,0,1-1.17.66,2.11,2.11,0,0,1-.85.27c-.24,0-.35-.33-.35-1a5.37,5.37,0,0,1,.16-1.26,10.36,10.36,0,0,1,.58-1.6,12.91,12.91,0,0,1,.65-1.24c.27-.49.56-1,.9-1.55a15.82,15.82,0,0,1,1.06-1.54c.4-.52.78-1,1.17-1.44A10,10,0,0,1,88.7,141a1.37,1.37,0,0,1,.71-.43.51.51,0,0,1,.37.22,2.08,2.08,0,0,1,.39.53,2.9,2.9,0,0,1,.31.64,1.76,1.76,0,0,1,.13.56,2,2,0,0,1,0,.46c0,.18,0,.38,0,.61a2.31,2.31,0,0,0,.11.76,2,2,0,0,0,.31.55A8.26,8.26,0,0,1,90.55,145.72Z"/></svg>