<svg id="Layer_1" data-name="Layer 1" xmlns="http://www.w3.org/2000/svg" xmlns:xlink="http://www.w3.org/1999/xlink" viewBox="0 0 300 300"><defs><style>.cls-1{fill:#fff;}.cls-2{fill:#1d86c7;}.cls-3{fill:url(#linear-gradient);}.cls-4{fill:#0773b8;}.cls-5{fill:none;}.cls-6{fill:#ea1e32;}</style><linearGradient id="linear-gradient" x1="150" y1="7.95" x2="150" y2="215.77" gradientUnits="userSpaceOnUse"><stop offset="0" stop-color="#ea2c29"/><stop offset="1" stop-color="#b02326"/></linearGradient></defs><title>OnEdu Logo</title><path class="cls-1" d="M257.15,0H42.86A42.85,42.85,0,0,0,0,42.83V257.2A42.86,42.86,0,0,0,42.86,300H257.14A42.85,42.85,0,0,0,300,257.17V42.8A42.86,42.86,0,0,0,257.15,0Zm34.9,42.92V257.16a34.89,34.89,0,0,1-34.91,34.89H42.86A35,35,0,0,1,8,257.2V42.84A34.89,34.89,0,0,1,42.86,8H257.15a35,35,0,0,1,34.9,34.88Z"/><path class="cls-2" d="M257.17,180.89H42.86A34.89,34.89,0,0,0,8,215.77V257.2a35,35,0,0,0,34.91,34.85H257.14a34.89,34.89,0,0,0,34.91-34.89V146A35,35,0,0,1,257.17,180.89Z"/><path class="cls-3" d="M257.15,8H42.86A34.89,34.89,0,0,0,8,42.84V215.77a34.89,34.89,0,0,1,34.91-34.88H257.17A35,35,0,0,0,292.05,146V42.83A35,35,0,0,0,257.15,8Z"/><path class="cls-1" d="M222.89,140.07c.08.16.15.31.24.47l.38.64c.08.15.17.3.26.44s.28.44.43.66l.26.41.53.72.24.31c.26.35.54.68.82,1a10.62,10.62,0,0,0,1.8,1.88,25.83,25.83,0,0,0,21.74,6.64l.71-.12a25.48,25.48,0,0,0,11.56-5.37,24.46,24.46,0,0,0,9.06-19.08V40.06H250.3v88.72h0a4.66,4.66,0,0,1-3.14,4.38,4.82,4.82,0,0,1-6.14-2.78,0,0,0,0,0,0,0h0l-8.56-22.83-4-10.72h0L213.25,56.34h0c-.06-.17-.13-.33-.2-.5s-.13-.33-.2-.5-.19-.43-.29-.65-.14-.32-.22-.48l-.34-.65c-.08-.15-.15-.3-.24-.46s-.25-.43-.38-.65-.17-.29-.26-.44l-.43-.65-.27-.41-.53-.72-.23-.31c-.27-.35-.54-.69-.83-1A11.18,11.18,0,0,0,207,47a25.9,25.9,0,0,0-21.74-6.64l-.71.13A25.48,25.48,0,0,0,173,45.87,24.46,24.46,0,0,0,164,65s0-.1,0-.15v88.77h20.63V64.85h0a4.68,4.68,0,0,1,3.14-4.39,4.82,4.82,0,0,1,6.13,2.79,0,0,0,0,1,0,0h0l8.56,22.83,9.37,25,11.08,29"/><rect class="cls-1" x="73.78" y="29.82" width="20.64" height="51.6" rx="5.16"/><path class="cls-1" d="M104.74,44.24V67.5a36,36,0,1,1-41.28,0V44.24a56.61,56.61,0,1,0,41.28,0Z"/><path class="cls-4" d="M148.08,280.55c-37.37-9.52-65,.53-65,.53V200.73s30.92-11.38,67,0V279a1.6,1.6,0,0,1-2,1.56"/><path d="M81.81,282.89v-83l.84-.29c.58-.22,14.18-5.16,34-5.16a112,112,0,0,1,33.78,5.13l.89.28V279a2.88,2.88,0,0,1-2.87,2.88,3,3,0,0,1-.73-.1,130.19,130.19,0,0,0-32.09-4c-19.38,0-32,4.51-32.15,4.56Zm2.56-81.25v77.69a110.77,110.77,0,0,1,31.3-4.15,132.78,132.78,0,0,1,32.71,4.14.34.34,0,0,0,.44-.33V201.67a112.25,112.25,0,0,0-64.45,0Z"/><path class="cls-4" d="M216.92,281.08c-33.09-9-58.92-2.47-65.43-.51a1.24,1.24,0,0,1-1.58-1.18V200.73s30.94-11.38,67,0Z"/><path d="M218.19,282.72l-1.6-.42a130,130,0,0,0-34.1-4.58,108.15,108.15,0,0,0-30.61,4.07,2.5,2.5,0,0,1-3.23-2.4V199.84l.83-.29c.56-.22,14.19-5.16,34-5.16a111.83,111.83,0,0,1,33.77,5.13l.9.28Zm-35.7-7.54a133.5,133.5,0,0,1,33.16,4.24V201.67a112.32,112.32,0,0,0-64.47,0v77.69A112.07,112.07,0,0,1,182.49,275.18Z"/><path class="cls-5" d="M150.69,194.55v20.83h1v44.4h-1v14.78a94.65,94.65,0,0,1,29.39-4.36,112.7,112.7,0,0,1,31.27,4.47V194.62A94.34,94.34,0,0,0,181,189.68,93.39,93.39,0,0,0,150.69,194.55Z"/><path class="cls-1" d="M150,194.16c-33.38-11.47-61.95,0-61.95,0v81.29s26.4-10.48,61.87-.05v.05l.08,0,.08,0v-.06c2.27-.85,28-10,61.88.06V194.19C179.55,183,151.62,193.54,150,194.16Z"/><path d="M212.15,193.6A95.35,95.35,0,0,0,181,188.46a93.91,93.91,0,0,0-31,5,95.55,95.55,0,0,0-30.85-5,93.29,93.29,0,0,0-31.33,5.15l-.39.16v82.62l.84-.34c.12-.05,11.88-4.63,29.92-4.63a111.44,111.44,0,0,1,31.11,4.48v.49l.72-.3.67.21v-.45c2.53-.89,13.53-4.43,29.39-4.43a111.56,111.56,0,0,1,31.71,4.65l.79.23V193.75Zm-.8,81.07a112.7,112.7,0,0,0-31.27-4.47,94.65,94.65,0,0,0-29.39,4.36V259.78H149.3v14.85a112.12,112.12,0,0,0-31.11-4.43,94.38,94.38,0,0,0-29.54,4.41v-80a96.19,96.19,0,0,1,60.65,0v20.81h1.39V194.55A93.39,93.39,0,0,1,181,189.68a94.34,94.34,0,0,1,30.31,4.94Z"/><polygon class="cls-6" points="163.7 213.27 158.78 210.94 153.85 213.27 153.85 192.26 163.7 189.97 163.7 213.27"/><path class="cls-2" d="M131.79,222.23a2.21,2.21,0,0,1-.15.69,3.72,3.72,0,0,1-.38.88,7.47,7.47,0,0,1-.55.83,2.62,2.62,0,0,1-.66.56,6.58,6.58,0,0,1-1.34.48c-.44.11-.94.22-1.58.35-1.59.31-3.19.57-4.71.79s-3,.38-4.39.51-2.65.21-3.8.28-2.1.07-2.88.07H105.9c-.48,0-.94,0-1.36,0-.06.59-.12,1.28-.16,2.11s-.09,1.68-.14,2.53-.11,1.69-.16,2.49-.13,1.46-.22,2a15.75,15.75,0,0,0,1.68.12l1.84,0c.88,0,1.72,0,2.58-.11s1.57-.11,2.1-.17l1.33-.1,1.91-.12c.68-.07,1.34-.11,2-.21s1.16-.14,1.52-.22l1-.42a8.94,8.94,0,0,1,.92-.3,4.28,4.28,0,0,1,.88-.17,6.33,6.33,0,0,1,1-.06,2.3,2.3,0,0,1,1.19.28,2.1,2.1,0,0,1,.72.73,3.41,3.41,0,0,1,.37,1.06,8.25,8.25,0,0,1,.1,1.22,1.85,1.85,0,0,1-.43,1.29,4,4,0,0,1-1.06.84,6.63,6.63,0,0,1-1.33.5l-1.22.26a10.63,10.63,0,0,1-1.57.22l-2.65.24c-1,.07-2,.13-3.16.22l-3.2.16-2.66.11c-.77,0-1.34,0-1.68,0a7,7,0,0,0-1.5.15c-.44.09-.93.2-1.42.33a20.59,20.59,0,0,0-.51,2.74c-.14,1-.32,2-.56,3.07-.08.43-.18.86-.28,1.3l-.27,1.26a10.11,10.11,0,0,0-.18,1.08c-.06.33-.1.6-.12.82.39,0,.81,0,1.31,0s1,0,1.49-.07l1.59-.12,1.52-.15,3.18-.27,2.4-.21c.71-.07,1.37-.13,2-.21s1.26-.14,1.95-.25c.38-.06.83-.11,1.35-.17l1.61-.17c.53-.05,1.1-.13,1.63-.2a13.29,13.29,0,0,0,1.53-.31,6.38,6.38,0,0,0,.85-.27c.29-.12.59-.22.89-.33s.6-.19.91-.27a4.18,4.18,0,0,1,.92-.1,2.65,2.65,0,0,1,1.08.23,3.07,3.07,0,0,1,.91.66,3.73,3.73,0,0,1,.63,1,3.33,3.33,0,0,1,.23,1.27,1.58,1.58,0,0,1-.25.68,3.63,3.63,0,0,1-.68.87,5.24,5.24,0,0,1-1.05.79,3.61,3.61,0,0,1-1.3.51c-1.56.29-3.1.52-4.67.69s-3.26.38-5.16.62l-4,.47-3.77.48c-1.15.13-2.17.27-3.07.38s-1.53.21-1.94.31a9.4,9.4,0,0,0-1.28.3l-1.39.38-1.33.33a6.07,6.07,0,0,1-1.14.11h0a5.65,5.65,0,0,1-1.67-.21,2.74,2.74,0,0,1-1.19-.79,4.19,4.19,0,0,1-.71-1.53,9.22,9.22,0,0,1-.25-2.42,11.94,11.94,0,0,1,.29-2.51c.2-.92.44-2,.67-3.3s.49-2.35.72-3.37.44-2,.65-3,.38-1.92.55-2.88.29-2,.39-3.09c0-.12,0-.41.06-.89s.08-1,.13-1.69.1-1.35.14-2.08.1-1.44.16-2.08.09-1.22.11-1.68,0-.79,0-.93a2.34,2.34,0,0,0,0-.53,3,3,0,0,1,0-.56,4.22,4.22,0,0,1,.23-1.32,5.93,5.93,0,0,1,.68-1.49,3,3,0,0,1,.83-.8,9.5,9.5,0,0,1,1.26-.74,6.71,6.71,0,0,1,1.4-.56,4.14,4.14,0,0,1,1.16-.21,4.91,4.91,0,0,1,.92.11c.43.06.85.15,1.28.23s.88.15,1.3.23a5.16,5.16,0,0,0,.87.12c.41,0,.95,0,1.63,0l2.28,0c1.54,0,3.1-.06,4.68-.16s3.17-.31,4.78-.57a17,17,0,0,0,2-.48l1.87-.56a18.68,18.68,0,0,1,1.82-.47,8.87,8.87,0,0,1,1.94-.21,2.53,2.53,0,0,1,1,.23,3.67,3.67,0,0,1,.89.6,3.27,3.27,0,0,1,.67.87,1.88,1.88,0,0,1,.26,1"/><path class="cls-2" d="M206.44,248.65a1,1,0,0,0-.66-.28,1.73,1.73,0,0,0-.6.12,4.88,4.88,0,0,0-.58.34,5.3,5.3,0,0,0-.52.42c-.17.15-.3.29-.42.39a5.83,5.83,0,0,1-2.23,1.24,8.59,8.59,0,0,1-2.09.29,2.66,2.66,0,0,1-1.61-.6,5.38,5.38,0,0,1-1.38-1.61,9,9,0,0,1-1-2.34,10.69,10.69,0,0,1-.37-2.8,7.44,7.44,0,0,1,.15-1.51c.09-.51.22-1,.35-1.46a14.21,14.21,0,0,1,.45-1.35c.17-.42.34-.79.47-1.1s.26-.66.36-.91a1.81,1.81,0,0,0,.14-.62c0-.26,0-.56,0-.89a2.25,2.25,0,0,0-.27-.9,2.07,2.07,0,0,0-.73-.71,3.2,3.2,0,0,0-1.42-.27,2.93,2.93,0,0,0-1.58.42,3.91,3.91,0,0,0-1.11,1.11,6.93,6.93,0,0,0-.83,1.58c-.23.6-.46,1.22-.69,1.85s-.48,1.28-.72,1.91a13.2,13.2,0,0,1-.86,1.77c-.25.36-.62.91-1.19,1.61s-1.21,1.48-1.89,2.29-1.41,1.59-2.15,2.35a20.88,20.88,0,0,1-2.07,1.86c-.23.17-.49.37-.78.57a8.44,8.44,0,0,1-.88.59,8.33,8.33,0,0,1-.83.44,1.71,1.71,0,0,1-.71.19.49.49,0,0,1-.42-.35,4.12,4.12,0,0,1-.28-.8,7.12,7.12,0,0,1-.1-.94c0-.33,0-.61,0-.81a11.12,11.12,0,0,1,.18-2.21,14.77,14.77,0,0,1,.47-2,12.86,12.86,0,0,1,.69-1.82c.27-.59.53-1.18.8-1.8.2-.42.43-1,.72-1.61s.58-1.32.83-2,.5-1.3.68-1.87a4.17,4.17,0,0,0,.3-1.32,1.9,1.9,0,0,0-.24-.82,4.81,4.81,0,0,0-.65-.89,3.71,3.71,0,0,0-.87-.71,2,2,0,0,0-1-.29,2.14,2.14,0,0,0-.76.21,8.07,8.07,0,0,0-.94.52,6.15,6.15,0,0,0-.89.64,2.43,2.43,0,0,0-.57.63,10.17,10.17,0,0,1-.44,2c-.57.6-1.21,1.24-1.9,2-1,1-1.94,2-2.93,3.07-.35.36-.76.8-1.24,1.28s-1,1-1.5,1.5-1.07,1-1.64,1.5a15.34,15.34,0,0,1-1.65,1.3,9.35,9.35,0,0,1-1.57.93,3.3,3.3,0,0,1-1.36.35c-.24,0-.47-.18-.66-.55a5.87,5.87,0,0,1-.52-1.38c-.14-.54-.25-1.16-.36-1.82s-.17-1.31-.25-1.9-.07-1.11-.1-1.57-.05-.73-.05-.83c0-1.22.05-2.4.15-3.59s.28-2.44.48-3.81c.36-2.33.68-4.36,1-6.07s.55-3.16.75-4.33.36-2.11.51-2.79a12.38,12.38,0,0,0,.19-1.47c0-.66-.48-1.19-1.38-1.55a5.14,5.14,0,0,0-.87-.31,4.56,4.56,0,0,0-2.7.28,2.37,2.37,0,0,0-1.08,1,4.65,4.65,0,0,0-.36,1.3c-.11.65-.22,1.39-.31,2.24s-.19,1.68-.28,2.56-.14,1.68-.2,2.37-.13,1.34-.22,2.09-.15,1.51-.24,2.27-.16,1.48-.25,2.16-.16,1.28-.24,1.79a16,16,0,0,0-.59-1.86,8.54,8.54,0,0,0-.81-1.6,4.82,4.82,0,0,0-1.06-1.13,2.17,2.17,0,0,0-1.29-.43,17.74,17.74,0,0,0-3.28.27,8.62,8.62,0,0,0-4.18,2,22,22,0,0,0-1.74,1.63c-.57.58-1.12,1.17-1.62,1.77s-1,1.19-1.32,1.73a38.67,38.67,0,0,0-3.41,5.7,50.43,50.43,0,0,0-2.47,6.12,7,7,0,0,0-.34,1.5,14.6,14.6,0,0,0-.12,2.13,8.53,8.53,0,0,0,.23,1.88,7.32,7.32,0,0,0,.74,1.82,4.7,4.7,0,0,0,1.29,1.37,3,3,0,0,0,1.81.53,14,14,0,0,0,5.76-1.2,19.46,19.46,0,0,0,5.38-3.61c.67-.62,1.37-1.3,2.05-2s1.36-1.55,2-2.36,1.23-1.62,1.78-2.43a21.53,21.53,0,0,0,1.34-2.28c.05.84.11,1.78.24,2.76a13.67,13.67,0,0,0,.66,2.86,9.46,9.46,0,0,0,1.23,2.51,4.5,4.5,0,0,0,1.93,1.69,3.84,3.84,0,0,0,1.72.43,6.08,6.08,0,0,0,2.51-.61,15,15,0,0,0,2.51-1.46,22.73,22.73,0,0,0,2.31-1.84c.73-.65,1.37-1.26,1.95-1.78s1.13-1.09,1.75-1.75l.61-.65a11.38,11.38,0,0,0-.32,1.56,16.22,16.22,0,0,0-.31,3,12.33,12.33,0,0,0,.11,1.7,16.26,16.26,0,0,0,.34,1.78,5,5,0,0,0,.91,1.77,9,9,0,0,0,1.4,1.37,8,8,0,0,0,1.44.88,3,3,0,0,0,1.11.31,5.86,5.86,0,0,0,2.25-.5,12.61,12.61,0,0,0,2.47-1.35,24,24,0,0,0,2.49-2,31,31,0,0,0,2.35-2.38c.74-.83,1.43-1.66,2.06-2.5a21.37,21.37,0,0,0,1.57-2.42,7.68,7.68,0,0,0,.66,3,11.19,11.19,0,0,0,1.73,2.68A9.37,9.37,0,0,0,195.2,255a6.27,6.27,0,0,0,2.92.74,8.88,8.88,0,0,0,3.61-.71,9.34,9.34,0,0,0,2.72-1.74,7.94,7.94,0,0,0,1.72-2.14,4.17,4.17,0,0,0,.63-1.9A.77.77,0,0,0,206.44,248.65Zm-55.52-5.78c-.28.39-.52.76-.76,1.08s-.83,1.05-1.47,1.78-1.43,1.59-2.4,2.61a18.93,18.93,0,0,1-1.75,1.54,21.67,21.67,0,0,1-2.07,1.45,15.88,15.88,0,0,1-1.95,1.11,3.62,3.62,0,0,1-1.42.44c-.4,0-.58-.54-.58-1.64a9.2,9.2,0,0,1,.26-2.11,17.49,17.49,0,0,1,1-2.66c.25-.57.62-1.26,1.08-2.07s.94-1.66,1.5-2.58a28.86,28.86,0,0,1,1.76-2.57c.68-.86,1.31-1.67,2-2.39a15.35,15.35,0,0,1,1.77-1.81c.53-.47.91-.71,1.18-.71a.85.85,0,0,1,.63.37,3.84,3.84,0,0,1,.64.87,5,5,0,0,1,.52,1.07,2.74,2.74,0,0,1,.21.93,4.31,4.31,0,0,1,0,.77c0,.29,0,.63,0,1a3.76,3.76,0,0,0,.18,1.27,3.35,3.35,0,0,0,.52.92C151.4,242,151.15,242.47,150.92,242.87Z"/></svg>