<svg id="Layer_1" data-name="Layer 1" xmlns="http://www.w3.org/2000/svg" xmlns:xlink="http://www.w3.org/1999/xlink" viewBox="0 0 32 32"><defs><style>.cls-1{fill:#fff;}.cls-2{fill:#1d86c7;}.cls-3{fill:url(#linear-gradient);}.cls-4{fill:#0773b8;}.cls-5{fill:none;}.cls-6{fill:#ea1e32;}</style><linearGradient id="linear-gradient" x1="16" y1="0.85" x2="16" y2="23.02" gradientUnits="userSpaceOnUse"><stop offset="0" stop-color="#ea2c29"/><stop offset="1" stop-color="#b02326"/></linearGradient></defs><title>OnEdu Logo</title><path class="cls-1" d="M27.43,0H4.57A4.58,4.58,0,0,0,0,4.57H0V27.42H0A4.57,4.57,0,0,0,4.57,32H27.43A4.58,4.58,0,0,0,32,27.43h0V4.58h0A4.57,4.57,0,0,0,27.43,0Zm3.72,4.58V27.43h0a3.72,3.72,0,0,1-3.72,3.72H4.57A3.73,3.73,0,0,1,.85,27.43h0V4.57h0A3.72,3.72,0,0,1,4.57.85H27.43a3.73,3.73,0,0,1,3.72,3.72Z"/><path class="cls-2" d="M27.43,19.29H4.57A3.74,3.74,0,0,0,.85,23v4.4h0a3.73,3.73,0,0,0,3.72,3.72H27.43a3.72,3.72,0,0,0,3.72-3.72h0V15.57A3.73,3.73,0,0,1,27.43,19.29Z"/><path class="cls-3" d="M27.43.85H4.57A3.72,3.72,0,0,0,.85,4.57h0V23a3.74,3.74,0,0,1,3.72-3.73H27.43a3.73,3.73,0,0,0,3.72-3.72v-11h0A3.73,3.73,0,0,0,27.43.85Z"/><path class="cls-1" d="M23.77,14.94l0,.05,0,.07,0,0a.43.43,0,0,1,0,.07l0,0,.06.08,0,0,.09.11.19.2a2.78,2.78,0,0,0,2.32.71l.08,0a2.72,2.72,0,0,0,1.23-.57,2.62,2.62,0,0,0,1-2h0V4.27H26.7v9.47h0a.51.51,0,0,1-1,.17h0l-.92-2.43-.42-1.14h0L22.75,6h0l0,0a.14.14,0,0,0,0-.06l0-.07s0,0,0,0a.43.43,0,0,1,0-.07s0,0,0,0a.16.16,0,0,1,0-.07l0,0-.05-.07,0-.05-.05-.07,0,0-.09-.1A1.09,1.09,0,0,0,22.08,5a2.76,2.76,0,0,0-2.32-.7h-.07a2.67,2.67,0,0,0-1.23.57,2.61,2.61,0,0,0-1,2v9.45h2.2V6.92h0A.5.5,0,0,1,20,6.45a.51.51,0,0,1,.66.3h0l.91,2.43,1,2.66,1.18,3.1"/><rect class="cls-1" x="7.87" y="3.18" width="2.2" height="5.5" rx="0.55"/><path class="cls-1" d="M11.17,4.72V7.2a3.84,3.84,0,1,1-4.4,0V4.72a6,6,0,1,0,4.4,0Z"/><path class="cls-4" d="M15.8,29.93A12.76,12.76,0,0,0,8.86,30V21.41a12.1,12.1,0,0,1,7.15,0v8.35a.18.18,0,0,1-.21.17"/><path d="M8.73,30.17V21.32l.09,0a11.08,11.08,0,0,1,3.63-.55,12,12,0,0,1,3.6.54l.09,0v8.45a.3.3,0,0,1-.3.31h-.08a13.77,13.77,0,0,0-3.42-.44,10.78,10.78,0,0,0-3.43.49ZM9,21.51V29.8a11.48,11.48,0,0,1,3.34-.45,14.33,14.33,0,0,1,3.49.44s0,0,0,0V21.51a12,12,0,0,0-6.87,0Z"/><path class="cls-4" d="M23.14,30a13.06,13.06,0,0,0-7-.05A.14.14,0,0,1,16,29.8V21.41a12.1,12.1,0,0,1,7.15,0Z"/><path d="M23.27,30.16l-.17-.05a14,14,0,0,0-3.63-.49,11.53,11.53,0,0,0-3.27.44.25.25,0,0,1-.26-.07.24.24,0,0,1-.08-.19V21.32l.08,0a11.18,11.18,0,0,1,3.64-.55,12,12,0,0,1,3.6.54l.09,0Zm-3.8-.81A14.6,14.6,0,0,1,23,29.8V21.51a12,12,0,0,0-6.87,0V29.8A11.54,11.54,0,0,1,19.47,29.35Z"/><path class="cls-5" d="M16.07,20.75V23h.11v4.74h-.11v1.58a10,10,0,0,1,3.14-.47,11.87,11.87,0,0,1,3.33.48V20.76a10.23,10.23,0,0,0-6.47,0Z"/><path class="cls-1" d="M16,20.71a10.31,10.31,0,0,0-6.61,0v8.67a11,11,0,0,1,6.6,0h0a11,11,0,0,1,6.6,0V20.71A10.26,10.26,0,0,0,16,20.71Z"/><path d="M22.63,20.65a10.28,10.28,0,0,0-3.32-.55,10,10,0,0,0-3.31.54,10.13,10.13,0,0,0-3.29-.54,10,10,0,0,0-3.34.55l0,0v8.81l.09,0a9.21,9.21,0,0,1,3.19-.5,11.8,11.8,0,0,1,3.32.48v.05l.07,0,.07,0v0A10.09,10.09,0,0,1,19.21,29a11.88,11.88,0,0,1,3.38.5l.09,0v-8.8Zm-.09,8.65a11.87,11.87,0,0,0-3.33-.48,10,10,0,0,0-3.14.47V27.71h-.14v1.58a12.16,12.16,0,0,0-3.32-.47,10.05,10.05,0,0,0-3.15.47V20.76a9.8,9.8,0,0,1,3.25-.53,10.24,10.24,0,0,1,3.22.52V23h.14V20.75a10.23,10.23,0,0,1,6.47,0Z"/><polygon class="cls-6" points="17.46 22.75 16.94 22.5 16.41 22.75 16.41 20.51 17.46 20.26 17.46 22.75"/><path class="cls-2" d="M14.06,23.7a.31.31,0,0,1,0,.08.36.36,0,0,1,0,.09l-.06.09a.19.19,0,0,1-.07.06l-.14.05-.17,0-.5.08-.47.06-.4,0h-1c0,.06,0,.14,0,.22s0,.18,0,.27,0,.18,0,.27,0,.16,0,.21l.18,0h.47l.22,0h.35l.21,0,.16,0,.11-.05.09,0h.2a.25.25,0,0,1,.13,0,.2.2,0,0,1,.08.08.36.36,0,0,1,0,.11s0,.09,0,.13a.22.22,0,0,1-.05.14l-.11.09L13,25.7l-.13,0-.17,0-.28,0-.34,0-.34,0h-.62l-.16,0a2.18,2.18,0,0,0-.05.29,2.33,2.33,0,0,1-.06.33l0,.13,0,.14s0,.08,0,.11,0,.07,0,.09h.47l.16,0,.34,0,.25,0,.22,0,.2,0,.15,0h.17l.17,0a.86.86,0,0,0,.17,0l.09,0,.09,0,.1,0h.1l.11,0,.1.07a.41.41,0,0,1,.07.11.59.59,0,0,1,0,.14.41.41,0,0,1,0,.07l-.08.09-.11.09-.14.05a4,4,0,0,1-.5.07l-.55.07-.43.05-.4.05-.33,0-.2,0a.35.35,0,0,0-.14,0l-.15,0-.14,0h-.13a.44.44,0,0,1-.17,0,.22.22,0,0,1-.13-.08.54.54,0,0,1-.08-.17.9.9,0,0,1,0-.25,1.39,1.39,0,0,1,0-.27c0-.1,0-.22.07-.35s0-.25.08-.36l.06-.32.06-.31a3,3,0,0,0,0-.33s0,0,0-.09a1.41,1.41,0,0,1,0-.18c0-.07,0-.15,0-.22s0-.16,0-.23,0-.13,0-.18v-.15a.15.15,0,0,1,0-.06.39.39,0,0,1,0-.14.56.56,0,0,1,.07-.16.38.38,0,0,1,.09-.09l.13-.08.15-.05.13,0h.09l.14,0,.14,0,.09,0h.42l.5,0,.51-.06.21-.05.2-.06.2,0,.2,0,.11,0,.1.07.07.09a.19.19,0,0,1,0,.1"/><path class="cls-2" d="M22,26.52a.11.11,0,0,0-.07,0l-.06,0-.07,0-.05.05-.05,0a.6.6,0,0,1-.23.13l-.23,0a.29.29,0,0,1-.17-.06,1.29,1.29,0,0,1-.15-.17,1.86,1.86,0,0,1-.1-.25,1,1,0,0,1,0-.3.78.78,0,0,1,0-.16l0-.16a1.21,1.21,0,0,0,0-.14l.05-.12a.69.69,0,0,0,0-.1.39.39,0,0,0,0-.06s0-.06,0-.1a.26.26,0,0,0-.1-.17.35.35,0,0,0-.16,0,.28.28,0,0,0-.16.05.32.32,0,0,0-.12.11.56.56,0,0,0-.09.17l-.08.2c0,.07-.05.14-.07.2l-.09.19-.13.17-.2.25-.23.25-.22.2-.09.06-.09.06-.09.05L19,27a.05.05,0,0,1-.05,0l0-.08s0-.07,0-.1v-.09a1,1,0,0,1,0-.24,1.6,1.6,0,0,1,0-.21,1.46,1.46,0,0,1,.07-.19l.09-.19.07-.17a1.89,1.89,0,0,0,.09-.21c0-.07.06-.14.08-.2a.58.58,0,0,0,0-.14.16.16,0,0,0,0-.09.61.61,0,0,0-.07-.1l-.09-.07a.23.23,0,0,0-.11,0l-.08,0-.1.05-.09.07-.06.07a1.31,1.31,0,0,1-.05.22l-.2.21-.31.32a1.84,1.84,0,0,1-.14.14c-.05.05-.1.11-.16.16l-.17.16-.18.14-.16.1-.15,0a.08.08,0,0,1-.07,0,1.16,1.16,0,0,1-.06-.15c0-.06,0-.12,0-.2l0-.2c0-.06,0-.12,0-.17a.54.54,0,0,0,0-.08c0-.13,0-.26,0-.39s0-.26.05-.4.07-.47.11-.65.05-.34.08-.46,0-.23.05-.3,0-.13,0-.16-.05-.12-.15-.16l-.09,0h-.1a.5.5,0,0,0-.19,0,.25.25,0,0,0-.11.12.24.24,0,0,0,0,.13c0,.07,0,.15,0,.24l0,.28a21.78,21.78,0,0,1,0,.47,1.94,1.94,0,0,0,0,.24c0,.09,0,.16,0,.23s0,.14,0,.2a.66.66,0,0,0-.06-.2.68.68,0,0,0-.09-.17.43.43,0,0,0-.11-.12.24.24,0,0,0-.14-.05,1.83,1.83,0,0,0-.35,0l-.26.08a1,1,0,0,0-.18.13l-.19.17-.17.19a1.82,1.82,0,0,0-.14.19,4.22,4.22,0,0,0-.37.6,4.77,4.77,0,0,0-.26.66.53.53,0,0,0,0,.16,1.48,1.48,0,0,0,0,.22.69.69,0,0,0,0,.2.68.68,0,0,0,.07.2.47.47,0,0,0,.14.14.32.32,0,0,0,.2.06,1.46,1.46,0,0,0,.61-.13,1.83,1.83,0,0,0,.57-.38l.22-.22a2.62,2.62,0,0,0,.22-.25l.19-.26c.06-.09.1-.17.14-.24,0,.09,0,.19,0,.29a1.08,1.08,0,0,0,.07.31.79.79,0,0,0,.13.26.49.49,0,0,0,.2.18.45.45,0,0,0,.19.05.7.7,0,0,0,.27-.06l.26-.16a2.43,2.43,0,0,0,.25-.2l.21-.19a1.53,1.53,0,0,0,.18-.18l.07-.07a.94.94,0,0,0,0,.16,1.91,1.91,0,0,0,0,.32c0,.06,0,.12,0,.18a1.62,1.62,0,0,0,0,.19.5.5,0,0,0,.1.19.54.54,0,0,0,.15.15.6.6,0,0,0,.15.09l.12,0a.57.57,0,0,0,.24-.05,1.1,1.1,0,0,0,.26-.14,2.61,2.61,0,0,0,.27-.22l.25-.25.22-.27a1.75,1.75,0,0,0,.16-.25.89.89,0,0,0,.08.31,1.08,1.08,0,0,0,.18.29,1.33,1.33,0,0,0,.26.21.71.71,0,0,0,.31.08,1,1,0,0,0,.68-.27.73.73,0,0,0,.18-.22.4.4,0,0,0,.07-.21S22,26.54,22,26.52Zm-5.92-.61L16,26l-.16.19-.26.28a1.45,1.45,0,0,1-.18.16l-.22.16-.21.12a.41.41,0,0,1-.15,0c-.05,0-.06,0-.06-.17a1,1,0,0,1,0-.23,1.77,1.77,0,0,1,.11-.28,1.48,1.48,0,0,1,.11-.22l.16-.28.19-.27.21-.26.19-.19a.22.22,0,0,1,.12-.07A.09.09,0,0,1,16,25a.22.22,0,0,1,.07.09l.06.11a.44.44,0,0,1,0,.1.22.22,0,0,1,0,.08v.11a.3.3,0,0,0,0,.14.26.26,0,0,0,.05.09C16.15,25.82,16.12,25.86,16.1,25.91Z"/></svg>