<svg width="36" height="36" viewBox="0 0 36 36" fill="none" xmlns="http://www.w3.org/2000/svg">
<path d="M35.89 15.98C35.83 15.45 35.75 14.93 35.65 14.41H29.88L34.4 10.55C34.02 9.71002 33.57 8.90002 33.07 8.14002L25.67 14.41H22.54L31.86 6.51002C31.58 6.17002 31.28 5.84002 30.97 5.52002L21.68 13.4V0.380024C21.22 0.280024 20.75 0.210024 20.28 0.150024V15.99H35.89V15.98Z" fill="white"/>
<path d="M20.28 35.8599C20.75 35.7999 21.22 35.7199 21.68 35.6299V23.2899L30.53 30.9199C31.23 30.2399 31.87 29.5099 32.46 28.7199L24.97 22.2399H28.1L33.6 26.9899C33.8 26.6399 33.99 26.2899 34.17 25.9299L29.88 22.2399H35.5C35.62 21.7299 35.73 21.2099 35.81 20.6799H20.28V35.8599Z" fill="white"/>
<path d="M16.09 0.0999756C15.62 0.149976 15.15 0.219976 14.69 0.299976V13.39L5.20999 5.33998C4.6 5.94998 4.03999 6.59998 3.52999 7.29998L11.9 14.42H8.76999L2.41 8.99998C2.16 9.42998 1.93 9.87998 1.71 10.33L6.49999 14.41H0.359995C0.259995 14.92 0.169995 15.45 0.119995 15.98H16.09V0.0999756Z" fill="white"/>
<path d="M14.69 35.6999C15.15 35.7899 15.62 35.8499 16.09 35.8999V20.6799H0.199982C0.279982 21.2099 0.379982 21.7299 0.509982 22.2399H6.49998L1.96998 26.1799C2.43998 27.0999 2.98998 27.9799 3.60998 28.7999L11.19 22.2399H14.32L4.92998 30.3599C5.16998 30.6099 5.40998 30.8499 5.65998 31.0899L14.69 23.2799V35.6999Z" fill="white"/>
<path d="M25.67 14.41L33.07 8.14001C32.7 7.57001 32.3 7.03001 31.87 6.51001L22.55 14.41H25.67Z" fill="#DC0032"/>
<path d="M24.96 22.25L32.45 28.73C32.86 28.18 33.24 27.6 33.58 27.01L28.08 22.26H24.96V22.25Z" fill="#DC0032"/>
<path d="M11.9 14.41L3.53 7.30005C3.12 7.84005 2.75 8.41005 2.41 9.00005L8.77 14.41H11.9Z" fill="#DC0032"/>
<path d="M11.19 22.25L3.61002 28.81C4.02002 29.36 4.46002 29.88 4.93002 30.37L14.32 22.25H11.19Z" fill="#DC0032"/>
<path d="M30.97 5.52C28.51 2.96 25.29 1.13 21.68 0.369995V13.4L30.97 5.52Z" fill="#0D1E7E"/>
<path d="M14.69 0.309937C11.02 0.989937 7.73999 2.78994 5.20999 5.33994L14.69 13.3999V0.309937Z" fill="#0D1E7E"/>
<path d="M35.64 14.4099C35.37 13.0599 34.95 11.7699 34.39 10.5499L29.87 14.4099H35.64Z" fill="#0D1E7E"/>
<path d="M34.16 25.94C34.73 24.78 35.18 23.54 35.5 22.25H29.88L34.16 25.94Z" fill="#0D1E7E"/>
<path d="M14.69 23.2899L5.66 31.0999C8.12 33.4199 11.23 35.0499 14.69 35.6899V23.2899Z" fill="#0D1E7E"/>
<path d="M21.68 35.6199C25.08 34.9099 28.13 33.2499 30.53 30.9199L21.68 23.2899V35.6199Z" fill="#0D1E7E"/>
<path d="M0.51001 22.25C0.84001 23.63 1.34001 24.95 1.97001 26.19L6.50001 22.25H0.51001Z" fill="#0D1E7E"/>
<path d="M1.70999 10.3301C1.09999 11.6101 0.649985 12.9801 0.359985 14.4101H6.49999L1.70999 10.3301Z" fill="#0D1E7E"/>
<path d="M16.09 35.9C16.72 35.97 17.35 36 18 36C18.77 36 19.54 35.95 20.28 35.86V20.68H35.8C35.93 19.81 36 18.91 36 18C36 17.32 35.96 16.64 35.89 15.98H20.29V0.14C19.54 0.05 18.77 0 18 0C17.35 0 16.72 0.03 16.09 0.1V15.98H0.11C0.04 16.64 0 17.32 0 18C0 18.91 0.07 19.81 0.2 20.68H16.09V35.9Z" fill="#DC0032"/>
</svg>
